<?xml version="1.0" encoding="UTF-8" standalone="no"?>
<svg
   xmlns:dc="http://purl.org/dc/elements/1.1/"
   xmlns:cc="http://creativecommons.org/ns#"
   xmlns:rdf="http://www.w3.org/1999/02/22-rdf-syntax-ns#"
   xmlns:svg="http://www.w3.org/2000/svg"
   xmlns="http://www.w3.org/2000/svg"
   xmlns:sodipodi="http://sodipodi.sourceforge.net/DTD/sodipodi-0.dtd"
   xmlns:inkscape="http://www.inkscape.org/namespaces/inkscape"
   enable-background="new 0 0 1535.5566 1693.9089"
   version="1.1"
   viewBox="0 0 480 480"
   xml:space="preserve"
   id="svg3153"
   inkscape:version="0.48.5 r10040"
   width="100%"
   height="100%"
   sodipodi:docname="Thinking v2.svg"><title
     id="title3148">Thinking</title><metadata
     id="metadata3163"><rdf:RDF><cc:Work
         rdf:about=""><dc:format>image/svg+xml</dc:format><dc:type
           rdf:resource="http://purl.org/dc/dcmitype/StillImage" /><dc:title>Thinking</dc:title><cc:license
           rdf:resource="" /><dc:creator><cc:Agent><dc:title>Aukipa</dc:title></cc:Agent></dc:creator><dc:publisher><cc:Agent><dc:title>Aukipa - www.portaloha.com/creative-dept</dc:title></cc:Agent></dc:publisher><dc:subject><rdf:Bag><rdf:li>silhouette</rdf:li><rdf:li>SMIL</rdf:li><rdf:li>SVG</rdf:li><rdf:li>Head</rdf:li><rdf:li>Gear</rdf:li><rdf:li>Black</rdf:li><rdf:li>Animation</rdf:li></rdf:Bag></dc:subject><dc:description>Animation of turning gears inside a silhouette of a head.</dc:description><dc:contributor><cc:Agent><dc:title>Pixabay</dc:title></cc:Agent></dc:contributor></cc:Work></rdf:RDF></metadata><defs
     id="defs3161" /><sodipodi:namedview
     pagecolor="#ffffff"
     bordercolor="#666666"
     borderopacity="1"
     objecttolerance="10"
     gridtolerance="10"
     guidetolerance="10"
     inkscape:pageopacity="0"
     inkscape:pageshadow="2"
     inkscape:window-width="1366"
     inkscape:window-height="705"
     id="namedview3159"
     showgrid="false"
     inkscape:zoom="1.0972345"
     inkscape:cx="226.9207"
     inkscape:cy="281.30192"
     inkscape:window-x="-8"
     inkscape:window-y="-8"
     inkscape:window-maximized="1"
     inkscape:current-layer="svg3153" /><g
     inkscape:groupmode="layer"
     id="layer1"
     inkscape:label="Layer"><g
       id="g3155"><path
         d="m 166.5715,474.24796 228.47633,0 C 385.44806,429.13262 373.95891,354.91372 378.9045,336.72142 387.04982,305.86995 413.37165,282.583 423.26283,257.84337 473.58391,132.10494 412.09695,22.63846 273.03029,8.1144482 150.23528,-4.7116445 81.932348,65.015038 72.330536,137.05347 c -1.0175,7.713 0,15.42602 3.63671,23.43044 -16.869677,26.34112 -55.702196,65.19879 -59.046019,83.8266 -2.036815,11.20561 11.19801,15.1349 17.597755,19.06448 6.10863,2.03765 12.798038,0.58182 16.869666,5.53018 2.908719,3.63846 -1.0175,9.75058 -1.891186,14.26212 -0.145629,7.42189 -8.869916,11.06036 -7.998012,17.9 0.873708,5.82128 5.817515,8.14999 10.326118,11.78815 4.79974,3.78343 -12.217238,11.06006 -6.691157,17.75473 5.671644,6.54853 13.962828,14.11627 11.052459,23.43018 -4.217499,14.40739 -12.362812,29.39586 -5.671644,40.60234 6.691157,11.06035 15.99774,17.60887 30.395508,20.51894 22.541596,0 45.229356,0.43946 67.917096,0.43946 7.85245,6.83965 13.37852,28.96005 17.74362,58.64849 l -0.004,0 z"
         id="path3157"
         inkscape:connector-curvature="0"
         sodipodi:nodetypes="ccccccccccccccccccccc" /></g></g><path
     style="color:#000000;fill:#cccccc;fill-opacity:1;fill-rule:nonzero;stroke:#090909;stroke-width:1;stroke-linecap:butt;stroke-linejoin:round;stroke-miterlimit:4;stroke-opacity:1;stroke-dasharray:none;stroke-dashoffset:4.09999996;marker:none;visibility:visible;display:inline;overflow:visible;enable-background:accumulate"
     d="m 162.25124,62.055234 c 42.03173,-28.708405 104.13048,-33.737267 153.99839,-14.961791 40.11732,15.104338 84.04067,58.162547 89.31546,96.606517 5.47592,39.90986 -2.29083,82.42665 -20.05041,103.89757 -26.73388,19.0951 -9.72141,22.19264 -36.45528,29.16423 6.37967,15.1897 -30.987,42.22738 -24.60733,57.41708 -4.25312,-0.60759 -8.50623,-1.21517 -12.75935,-1.82276 -14.27832,-18.22764 16.10109,-50.12602 1.82277,-68.35366 -40.70391,-29.52874 -90.71533,4.63209 -150.37807,6.37967 C 132.70588,270.03156 108.63451,234.5524 104.80896,192.9146 98.074832,153.59088 120.33598,90.684086 162.25124,62.055234 z"
     id="path3150"
     inkscape:connector-curvature="0"
     sodipodi:nodetypes="ssscccccccs" /><g
     id="Gear1"
     inkscape:label="#g4369"
     transform="matrix(0.3138106,0,0,0.3138106,254.61602,130.98507)"><path
       style="color:#000000;fill:#000000;stroke:#000000;stroke-width:1;stroke-linecap:butt;stroke-linejoin:round;stroke-miterlimit:4;stroke-opacity:1;stroke-dashoffset:4.09999995999999990;marker:none;visibility:visible;display:inline;overflow:visible;enable-background:accumulate;fill-opacity:1"
       d="m 0,-217.03125 c -1.6782504,0 -3.3534511,0.0236 -5.03125,0.0625 -7.719137,11.79962 -11.418202,21.89432 -13.0625,28.75 -1.644299,6.85568 -1.28125,10.4375 -1.28125,10.4375 l 0.15625,1.25 c -5.715457,0.62266 -11.403116,1.51351 -17.03125,2.6875 l -0.25,-1.21875 c 0,0 -0.786408,-3.55048 -4.46875,-9.5625 -3.682341,-6.01202 -10.293631,-14.44449 -21.28125,-23.28125 -3.215422,0.96289 -6.426446,1.98277 -9.59375,3.09375 -3.695053,13.60745 -4.085949,24.34675 -3.53125,31.375 0.5547,7.02825 2.03125,10.34375 2.03125,10.34375 l 0.5,1.15625 c -5.24331,2.35836 -10.385108,4.95678 -15.375,7.8125 l -0.59375,-1.0625 c 0,0 -1.82757,-3.13888 -7.1875,-7.71875 -5.35993,-4.57986 -14.28819,-10.58485 -27.46875,-15.59375 -2.7605,1.90939 -5.48728,3.87089 -8.15625,5.90625 0.69073,14.08329 3.64435,24.42464 6.34375,30.9375 2.6994,6.51285 5.125,9.21875 5.125,9.21875 l 0.84375,0.9375 c -4.25791,3.86321 -8.32429,7.92959 -12.1875,12.1875 l -0.9375,-0.84375 c 0,0 -2.7059,-2.4256 -9.21875,-5.125 -6.51286,-2.6994 -16.85421,-5.65302 -30.9375,-6.34375 -2.03536,2.66897 -3.99686,5.39575 -5.90625,8.15625 5.0089,13.18056 11.01389,22.10882 15.59375,27.46875 4.57987,5.35993 7.71875,7.1875 7.71875,7.1875 l 1.0625,0.59375 c -2.85572,4.989892 -5.45414,10.13169 -7.8125,15.375 l -1.15625,-0.5 c 0,0 -3.3155,-1.47655 -10.34375,-2.03125 -7.02825,-0.554699 -17.76755,-0.163803 -31.375,3.53125 -1.11098,3.167304 -2.13086,6.378328 -3.09375,9.59375 8.83676,10.987619 17.26923,17.598909 23.28125,21.28125 6.01202,3.682342 9.5625,4.46875 9.5625,4.46875 l 1.21875,0.25 c -1.17399,5.628134 -2.06484,11.315793 -2.6875,17.03125 l -1.25,-0.15625 c 0,0 -3.58182,-0.363049 -10.4375,1.28125 -6.85568,1.644298 -16.95038,5.343363 -28.75,13.0625 -0.0779,3.3555978 -0.0779,6.7069022 0,10.0625 11.79962,7.719137 21.89432,11.418202 28.75,13.0625 6.85568,1.644299 10.4375,1.28125 10.4375,1.28125 l 1.25,-0.15625 c 0.62266,5.715457 1.51351,11.403116 2.6875,17.03125 l -1.21875,0.25 c 0,0 -3.55048,0.786408 -9.5625,4.46875 -6.01202,3.682341 -14.44449,10.293631 -23.28125,21.28125 0.96289,3.215422 1.98277,6.426446 3.09375,9.59375 13.60745,3.695053 24.34675,4.085949 31.375,3.53125 7.02825,-0.5547 10.34375,-2.03125 10.34375,-2.03125 l 1.15625,-0.5 c 2.35836,5.24331 4.95678,10.385108 7.8125,15.375 l -1.0625,0.59375 c 0,0 -3.13888,1.82757 -7.71875,7.1875 -4.57986,5.35993 -10.58485,14.28819 -15.59375,27.46875 1.90939,2.7605 3.87089,5.48728 5.90625,8.15625 14.08329,-0.69073 24.42464,-3.64435 30.9375,-6.34375 6.51285,-2.6994 9.21875,-5.125 9.21875,-5.125 l 0.9375,-0.84375 c 3.86321,4.25791 7.92959,8.32429 12.1875,12.1875 l -0.84375,0.9375 c 0,0 -2.4256,2.7059 -5.125,9.21875 -2.6994,6.51286 -5.65302,16.85421 -6.34375,30.9375 2.66897,2.03536 5.39575,3.99686 8.15625,5.90625 13.18056,-5.0089 22.10882,-11.01389 27.46875,-15.59375 5.35993,-4.57987 7.1875,-7.71875 7.1875,-7.71875 l 0.59375,-1.0625 c 4.989892,2.85572 10.13169,5.45414 15.375,7.8125 l -0.5,1.15625 c 0,0 -1.47655,3.3155 -2.03125,10.34375 -0.554699,7.02825 -0.163803,17.76755 3.53125,31.375 3.167304,1.11098 6.378328,2.13086 9.59375,3.09375 10.987619,-8.83676 17.598909,-17.26923 21.28125,-23.28125 3.682342,-6.01202 4.46875,-9.5625 4.46875,-9.5625 l 0.25,-1.21875 c 5.628134,1.17399 11.315793,2.06484 17.03125,2.6875 l -0.15625,1.25 c 0,0 -0.363049,3.58182 1.28125,10.4375 1.644298,6.85568 5.343363,16.95038 13.0625,28.75 3.3555978,0.0779 6.7069022,0.0779 10.0625,0 7.719137,-11.79962 11.418202,-21.89432 13.0625,-28.75 1.644299,-6.85568 1.28125,-10.4375 1.28125,-10.4375 l -0.15625,-1.25 c 5.715457,-0.62266 11.403116,-1.51351 17.03125,-2.6875 l 0.25,1.21875 c 0,0 0.786408,3.55048 4.46875,9.5625 3.682341,6.01202 10.293631,14.44449 21.28125,23.28125 3.215422,-0.96289 6.426446,-1.98277 9.59375,-3.09375 3.695053,-13.60745 4.085949,-24.34675 3.53125,-31.375 -0.5547,-7.02825 -2.03125,-10.34375 -2.03125,-10.34375 l -0.5,-1.15625 c 5.24331,-2.35836 10.385108,-4.95678 15.375,-7.8125 l 0.59375,1.0625 c 0,0 1.82757,3.13888 7.1875,7.71875 5.35993,4.57986 14.28819,10.58485 27.46875,15.59375 2.7605,-1.90939 5.48728,-3.87089 8.15625,-5.90625 -0.69073,-14.08329 -3.64435,-24.42464 -6.34375,-30.9375 -2.6994,-6.51285 -5.125,-9.21875 -5.125,-9.21875 L 119.3125,131.5 c 4.25791,-3.86321 8.32429,-7.92959 12.1875,-12.1875 l 0.9375,0.84375 c 0,0 2.7059,2.4256 9.21875,5.125 6.51286,2.6994 16.85421,5.65302 30.9375,6.34375 2.03536,-2.66897 3.99686,-5.39575 5.90625,-8.15625 C 173.4911,110.28819 167.48611,101.35993 162.90625,96 158.32638,90.64007 155.1875,88.8125 155.1875,88.8125 l -1.0625,-0.59375 c 2.85572,-4.989892 5.45414,-10.13169 7.8125,-15.375 l 1.15625,0.5 c 0,0 3.3155,1.47655 10.34375,2.03125 7.02825,0.554699 17.76755,0.163803 31.375,-3.53125 1.11098,-3.167304 2.13086,-6.378328 3.09375,-9.59375 C 199.06949,51.262381 190.63702,44.651091 184.625,40.96875 178.61298,37.286408 175.0625,36.5 175.0625,36.5 l -1.21875,-0.25 c 1.17399,-5.628134 2.06484,-11.315793 2.6875,-17.03125 l 1.25,0.15625 c 0,0 3.58182,0.363049 10.4375,-1.28125 6.85568,-1.644298 16.95038,-5.343363 28.75,-13.0625 0.0779,-3.3555978 0.0779,-6.7069022 0,-10.0625 -11.79962,-7.719137 -21.89432,-11.418202 -28.75,-13.0625 -6.85568,-1.644299 -10.4375,-1.28125 -10.4375,-1.28125 l -1.25,0.15625 c -0.62266,-5.715457 -1.51351,-11.403116 -2.6875,-17.03125 l 1.21875,-0.25 c 0,0 3.55048,-0.786408 9.5625,-4.46875 6.01202,-3.682341 14.44449,-10.293631 23.28125,-21.28125 -0.96289,-3.215422 -1.98277,-6.426446 -3.09375,-9.59375 -13.60745,-3.695053 -24.34675,-4.085949 -31.375,-3.53125 -7.02825,0.5547 -10.34375,2.03125 -10.34375,2.03125 l -1.15625,0.5 c -2.35836,-5.24331 -4.95678,-10.385108 -7.8125,-15.375 l 1.0625,-0.59375 c 0,0 3.13888,-1.82757 7.71875,-7.1875 4.57986,-5.35993 10.58485,-14.28819 15.59375,-27.46875 -1.90939,-2.7605 -3.87089,-5.48728 -5.90625,-8.15625 -14.08329,0.69073 -24.42464,3.64435 -30.9375,6.34375 -6.51285,2.6994 -9.21875,5.125 -9.21875,5.125 l -0.9375,0.84375 c -3.86321,-4.25791 -7.92959,-8.32429 -12.1875,-12.1875 l 0.84375,-0.9375 c 0,0 2.4256,-2.7059 5.125,-9.21875 2.6994,-6.51286 5.65302,-16.85421 6.34375,-30.9375 -2.66897,-2.03536 -5.39575,-3.99686 -8.15625,-5.90625 -13.18056,5.0089 -22.10882,11.01389 -27.46875,15.59375 -5.35993,4.57987 -7.1875,7.71875 -7.1875,7.71875 l -0.59375,1.0625 c -4.989892,-2.85572 -10.13169,-5.45414 -15.375,-7.8125 l 0.5,-1.15625 c 0,0 1.47655,-3.3155 2.03125,-10.34375 0.554699,-7.02825 0.163803,-17.76755 -3.53125,-31.375 -3.167304,-1.11098 -6.378328,-2.13086 -9.59375,-3.09375 -10.987619,8.83676 -17.598909,17.26923 -21.28125,23.28125 -3.682342,6.01202 -4.46875,9.5625 -4.46875,9.5625 l -0.25,1.21875 c -5.628134,-1.17399 -11.315793,-2.06484 -17.03125,-2.6875 l 0.15625,-1.25 c 0,0 0.363049,-3.58182 -1.28125,-10.4375 -1.644298,-6.85568 -5.343363,-16.95038 -13.0625,-28.75 -1.6777989,-0.0389 -3.3529996,-0.0625 -5.03125,-0.0625 z M 0,-140 c 80,0 140,60 140,140 0,80 -60,140 -140,140 -80,0 -140,-60 -140,-140 0,-80 60,-140 140,-140 z"
       id="path4361"
       inkscape:connector-curvature="0"><animateTransform
         repeatCount="indefinite"
         type="rotate"
         fill="freeze"
         dur="18000ms"
         begin="0ms"
         additive="sum"
         attributeName="transform"
         id="animateTransform4444"
         values="0 0 0;720 0 0" /></path></g><g
     id="Gear2"
     transform="matrix(0.3138106,0,0,0.3138106,254.61602,130.98507)"><path
       inkscape:label="#path4359"
       id="Gear2A"
       d="m 169.17851,270.5663 c 0,0 -2.31809,1.98975 -7.90857,3.7957 -5.59047,1.80596 -14.46421,3.37748 -26.16349,2.28817 -1.60686,-2.40859 -3.13797,-4.86772 -4.59027,-7.37253 4.18516,-10.97926 9.5112,-18.2488 13.59878,-22.46858 4.08758,-4.21979 6.89604,-5.42194 6.89604,-5.42194 l 7.97044,-3.33242 c -2.56043,-6.12399 -4.50064,-12.5071 -5.78135,-19.02008 l -8.4767,1.66685 c 0,0 -3.0024,0.56412 -8.74687,-0.66711 -5.74448,-1.23124 -14.21511,-4.30713 -23.80234,-11.10014 -0.18729,-2.88933 -0.2837,-5.78455 -0.28903,-8.67993 9.11409,-7.41575 17.36134,-11.04833 23.01118,-12.65898 5.64984,-1.61065 8.68312,-1.24751 8.68312,-1.24751 l 8.56881,1.09925 c 0.8446,-6.58374 2.35588,-13.08178 4.50325,-19.36254 l -8.17446,-2.79482 c 0,0 -2.88222,-1.01265 -7.24146,-4.95117 -4.35924,-3.93852 -10.15708,-10.83764 -15.06336,-21.51417 1.28247,-2.59588 2.64658,-5.15141 4.08966,-7.66156 11.6009,-1.86517 20.55952,-0.88745 26.25775,0.5426 5.69824,1.43006 8.14356,3.26118 8.14356,3.26118 l 6.87118,5.23639 c 4.02332,-5.27939 8.58115,-10.15122 13.5812,-14.51683 l -5.68188,-6.50762 c 0,0 -1.98975,-2.31809 -3.7957,-7.90857 -1.80596,-5.59047 -3.37748,-14.464206 -2.28817,-26.16349 2.40859,-1.606865 4.86772,-3.137965 7.37253,-4.590275 10.97926,4.185161 18.2488,9.511201 22.46858,13.598781 4.21979,4.08758 5.42194,6.896044 5.42194,6.896044 l 3.33242,7.97044 c 6.12399,-2.56043 12.5071,-4.50064 19.02008,-5.78135 l -1.66685,-8.476702 c 0,0 -0.56412,-3.0024 0.66711,-8.746873 1.23124,-5.744472 4.30713,-14.215108 11.10014,-23.802332 2.88933,-0.187294 5.78455,-0.283701 8.67993,-0.289032 7.41575,9.114089 11.04833,17.361341 12.65898,23.011182 1.61065,5.649841 1.24751,8.683118 1.24751,8.683118 l -1.09925,8.568809 c 6.58374,0.8446 13.08178,2.35588 19.36254,4.50325 l 2.79482,-8.174465 c 0,0 1.01265,-2.882215 4.95117,-7.241457 3.93852,-4.359242 10.83764,-10.157081 21.51417,-15.063355 2.59588,1.282462 5.15141,2.64658 7.66156,4.089657 1.86517,11.600903 0.88745,20.55952 -0.5426,26.25775 -1.43006,5.69824 -3.26118,8.14356 -3.26118,8.14356 l -5.23639,6.87118 c 5.27939,4.02332 10.15122,8.58115 14.51683,13.5812 l 6.50762,-5.68188 c 0,0 2.31809,-1.98975 7.90857,-3.7957 5.59047,-1.80596 14.46421,-3.37748 26.16349,-2.28817 1.60686,2.40859 3.13797,4.86772 4.59027,7.37253 -4.18516,10.97926 -9.5112,18.2488 -13.59878,22.46858 -4.08758,4.21979 -6.89604,5.42194 -6.89604,5.42194 l -7.97044,3.33242 c 2.56043,6.12399 4.50064,12.5071 5.78135,19.02008 l 8.4767,-1.66685 c 0,0 3.0024,-0.56412 8.74687,0.66711 5.74448,1.23124 14.21511,4.30713 23.80234,11.10014 0.18729,2.88933 0.2837,5.78455 0.28903,8.67993 -9.11409,7.41575 -17.36134,11.04833 -23.01118,12.65898 -5.64984,1.61065 -8.68312,1.24751 -8.68312,1.24751 l -8.56881,-1.09925 c -0.8446,6.58374 -2.35588,13.08178 -4.50325,19.36254 l 8.17446,2.79482 c 0,0 2.88222,1.01265 7.24146,4.95117 4.35924,3.93852 10.15708,10.83764 15.06336,21.51417 -1.28247,2.59588 -2.64658,5.15141 -4.08966,7.66156 -11.6009,1.86517 -20.55952,0.88745 -26.25775,-0.5426 -5.69824,-1.43006 -8.14356,-3.26118 -8.14356,-3.26118 l -6.87118,-5.23639 c -4.02332,5.27939 -8.58115,10.15122 -13.5812,14.51683 l 5.68188,6.50762 c 0,0 1.98975,2.31809 3.7957,7.90857 1.80596,5.59047 3.37748,14.46421 2.28817,26.16349 -2.40859,1.60686 -4.86772,3.13797 -7.37253,4.59027 -10.97926,-4.18516 -18.2488,-9.5112 -22.46858,-13.59878 -4.21979,-4.08758 -5.42194,-6.89604 -5.42194,-6.89604 l -3.33242,-7.97044 c -6.12399,2.56043 -12.5071,4.50064 -19.02008,5.78135 l 1.66685,8.4767 c 0,0 0.56412,3.0024 -0.66711,8.74687 -1.23124,5.74448 -4.30713,14.21511 -11.10014,23.80234 -2.88933,0.18729 -5.78455,0.2837 -8.67993,0.28903 -7.41575,-9.11409 -11.04833,-17.36134 -12.65898,-23.01118 -1.61065,-5.64984 -1.24751,-8.68312 -1.24751,-8.68312 l 1.09925,-8.56881 c -6.58374,-0.8446 -13.08178,-2.35588 -19.36254,-4.50325 l -2.79482,8.17446 c 0,0 -1.01265,2.88222 -4.95117,7.24146 -3.93852,4.35924 -10.83764,10.15708 -21.51417,15.06336 -2.59588,-1.28247 -5.15141,-2.64658 -7.66156,-4.08966 -1.86517,-11.6009 -0.88745,-20.55952 0.5426,-26.25775 1.43006,-5.69824 3.26118,-8.14356 3.26118,-8.14356 l 5.23639,-6.87118 c -5.27939,-4.02332 -10.15122,-8.58115 -14.51683,-13.5812 l -6.50762,5.68188"
       style="color:#000000;fill:#000000;stroke:#000000;stroke-width:1;stroke-linecap:butt;stroke-linejoin:round;stroke-miterlimit:4;stroke-opacity:1;stroke-dashoffset:4.09999995999999990;marker:none;visibility:visible;display:inline;overflow:visible;enable-background:accumulate;fill-opacity:1"
       inkscape:connector-curvature="0"><animateTransform
         values="0 250 200;-720 250 200"
         id="animateTransform4447"
         attributeName="transform"
         additive="sum"
         begin="0ms"
         dur="10800ms"
         fill="freeze"
         type="rotate"
         repeatCount="indefinite" /></path></g><g
     id="Gear2-7"
     transform="matrix(0.3138106,0,0,0.3138106,98.616015,132.98507)"><path
       inkscape:label="#path4359"
       id="Gear2A-4"
       d="m 169.17851,270.5663 c 0,0 -2.31809,1.98975 -7.90857,3.7957 -5.59047,1.80596 -14.46421,3.37748 -26.16349,2.28817 -1.60686,-2.40859 -3.13797,-4.86772 -4.59027,-7.37253 4.18516,-10.97926 9.5112,-18.2488 13.59878,-22.46858 4.08758,-4.21979 6.89604,-5.42194 6.89604,-5.42194 l 7.97044,-3.33242 c -2.56043,-6.12399 -4.50064,-12.5071 -5.78135,-19.02008 l -8.4767,1.66685 c 0,0 -3.0024,0.56412 -8.74687,-0.66711 -5.74448,-1.23124 -14.21511,-4.30713 -23.80234,-11.10014 -0.18729,-2.88933 -0.2837,-5.78455 -0.28903,-8.67993 9.11409,-7.41575 17.36134,-11.04833 23.01118,-12.65898 5.64984,-1.61065 8.68312,-1.24751 8.68312,-1.24751 l 8.56881,1.09925 c 0.8446,-6.58374 2.35588,-13.08178 4.50325,-19.36254 l -8.17446,-2.79482 c 0,0 -2.88222,-1.01265 -7.24146,-4.95117 -4.35924,-3.93852 -10.15708,-10.83764 -15.06336,-21.51417 1.28247,-2.59588 2.64658,-5.15141 4.08966,-7.66156 11.6009,-1.86517 20.55952,-0.88745 26.25775,0.5426 5.69824,1.43006 8.14356,3.26118 8.14356,3.26118 l 6.87118,5.23639 c 4.02332,-5.27939 8.58115,-10.15122 13.5812,-14.51683 l -5.68188,-6.50762 c 0,0 -1.98975,-2.31809 -3.7957,-7.90857 -1.80596,-5.59047 -3.37748,-14.464206 -2.28817,-26.16349 2.40859,-1.606865 4.86772,-3.137965 7.37253,-4.590275 10.97926,4.185161 18.2488,9.511201 22.46858,13.598781 4.21979,4.08758 5.42194,6.896044 5.42194,6.896044 l 3.33242,7.97044 c 6.12399,-2.56043 12.5071,-4.50064 19.02008,-5.78135 l -1.66685,-8.476702 c 0,0 -0.56412,-3.0024 0.66711,-8.746873 1.23124,-5.744472 4.30713,-14.215108 11.10014,-23.802332 2.88933,-0.187294 5.78455,-0.283701 8.67993,-0.289032 7.41575,9.114089 11.04833,17.361341 12.65898,23.011182 1.61065,5.649841 1.24751,8.683118 1.24751,8.683118 l -1.09925,8.568809 c 6.58374,0.8446 13.08178,2.35588 19.36254,4.50325 l 2.79482,-8.174465 c 0,0 1.01265,-2.882215 4.95117,-7.241457 3.93852,-4.359242 10.83764,-10.157081 21.51417,-15.063355 2.59588,1.282462 5.15141,2.64658 7.66156,4.089657 1.86517,11.600903 0.88745,20.55952 -0.5426,26.25775 -1.43006,5.69824 -3.26118,8.14356 -3.26118,8.14356 l -5.23639,6.87118 c 5.27939,4.02332 10.15122,8.58115 14.51683,13.5812 l 6.50762,-5.68188 c 0,0 2.31809,-1.98975 7.90857,-3.7957 5.59047,-1.80596 14.46421,-3.37748 26.16349,-2.28817 1.60686,2.40859 3.13797,4.86772 4.59027,7.37253 -4.18516,10.97926 -9.5112,18.2488 -13.59878,22.46858 -4.08758,4.21979 -6.89604,5.42194 -6.89604,5.42194 l -7.97044,3.33242 c 2.56043,6.12399 4.50064,12.5071 5.78135,19.02008 l 8.4767,-1.66685 c 0,0 3.0024,-0.56412 8.74687,0.66711 5.74448,1.23124 14.21511,4.30713 23.80234,11.10014 0.18729,2.88933 0.2837,5.78455 0.28903,8.67993 -9.11409,7.41575 -17.36134,11.04833 -23.01118,12.65898 -5.64984,1.61065 -8.68312,1.24751 -8.68312,1.24751 l -8.56881,-1.09925 c -0.8446,6.58374 -2.35588,13.08178 -4.50325,19.36254 l 8.17446,2.79482 c 0,0 2.88222,1.01265 7.24146,4.95117 4.35924,3.93852 10.15708,10.83764 15.06336,21.51417 -1.28247,2.59588 -2.64658,5.15141 -4.08966,7.66156 -11.6009,1.86517 -20.55952,0.88745 -26.25775,-0.5426 -5.69824,-1.43006 -8.14356,-3.26118 -8.14356,-3.26118 l -6.87118,-5.23639 c -4.02332,5.27939 -8.58115,10.15122 -13.5812,14.51683 l 5.68188,6.50762 c 0,0 1.98975,2.31809 3.7957,7.90857 1.80596,5.59047 3.37748,14.46421 2.28817,26.16349 -2.40859,1.60686 -4.86772,3.13797 -7.37253,4.59027 -10.97926,-4.18516 -18.2488,-9.5112 -22.46858,-13.59878 -4.21979,-4.08758 -5.42194,-6.89604 -5.42194,-6.89604 l -3.33242,-7.97044 c -6.12399,2.56043 -12.5071,4.50064 -19.02008,5.78135 l 1.66685,8.4767 c 0,0 0.56412,3.0024 -0.66711,8.74687 -1.23124,5.74448 -4.30713,14.21511 -11.10014,23.80234 -2.88933,0.18729 -5.78455,0.2837 -8.67993,0.28903 -7.41575,-9.11409 -11.04833,-17.36134 -12.65898,-23.01118 -1.61065,-5.64984 -1.24751,-8.68312 -1.24751,-8.68312 l 1.09925,-8.56881 c -6.58374,-0.8446 -13.08178,-2.35588 -19.36254,-4.50325 l -2.79482,8.17446 c 0,0 -1.01265,2.88222 -4.95117,7.24146 -3.93852,4.35924 -10.83764,10.15708 -21.51417,15.06336 -2.59588,-1.28247 -5.15141,-2.64658 -7.66156,-4.08966 -1.86517,-11.6009 -0.88745,-20.55952 0.5426,-26.25775 1.43006,-5.69824 3.26118,-8.14356 3.26118,-8.14356 l 5.23639,-6.87118 c -5.27939,-4.02332 -10.15122,-8.58115 -14.51683,-13.5812 l -6.50762,5.68188"
       style="color:#000000;fill:#000000;stroke:#000000;stroke-width:1;stroke-linecap:butt;stroke-linejoin:round;stroke-miterlimit:4;stroke-opacity:1;stroke-dashoffset:4.09999995999999990;marker:none;visibility:visible;display:inline;overflow:visible;enable-background:accumulate;fill-opacity:1"
       inkscape:connector-curvature="0"><animateTransform
         values="0 250 200;-720 250 200"
         id="animateTransform4447-0"
         attributeName="transform"
         additive="sum"
         begin="0ms"
         dur="10800ms"
         fill="freeze"
         type="rotate"
         repeatCount="indefinite" /></path></g></svg>