<?xml version="1.0" encoding="utf-8"?>

<!DOCTYPE svg PUBLIC "-//W3C//DTD SVG 1.1//EN" "http://www.w3.org/Graphics/SVG/1.1/DTD/svg11.dtd">
<svg version="1.1" id="Layer_1" xmlns="http://www.w3.org/2000/svg" xmlns:xlink="http://www.w3.org/1999/xlink" x="0px" y="0px"
	 viewBox="-18.1682 -46.8606 1058.2318 1280.0508" enable-background="new -18.1682 -46.8606 1058.2318 1280.0508"
	 xml:space="preserve">
<g>
	<path fill="#933213" stroke="#933213" stroke-width="0.0938" d="M249.76,525.34c-14.5688-50.3032-38.3344-98.5833-61.3225-145.5159
		c-14.7147-30.0414-31.6459-59.0558-44.2975-89.8942c-3.46-8.26-6.53-16.6699-10.27-24.7999
		c-6.199-13.4755-8.517-28.5061-13.4056-42.3381c-3.5608-10.0751-4.4579-21.0758-2.6175-31.5997
		c0.9168-5.2425,2.7873-10.0887,3.453-15.3559c0.7454-5.8978,1.4908-11.7956,2.2363-17.6935
		c1.4713-5.8851,1.5787-12.4907,2.3401-18.5154c0.7709-6.0995,1.6197-12.2035,2.4446-18.2797
		c0.9644-7.1024,1.82-14.2197,2.5669-21.3483c0.7095-6.7716,0.5983-13.881,1.6722-20.5395c0.73-4.05,0.52-8.1899,0.38-12.29
		c-4.64-4.2799-10.68-6.75-16.74-8.22C111.54,71.89,106.74,84.8,101.53,97.53c-0.42,1.54-2.4,1.22-3.59,1.62
		c-1.59-7.36-4.43-14.4401-6.23-21.77c-2.6588-10.8277-5.471-21.6168-8.2892-32.4039C80.7875,34.8969,78.9591,24.0181,74.53,14.54
		c-1.64-3.51-2.27-7.8201-5.58-10.25C60.07,4.61,52.28,9.26,43.99,11.9199C38.14,14.6,31.79,16.0801,26.16,19.25
		c-0.25,2.98-0.44,5.97-0.96,8.9199c-0.9822,13.3948-0.5009,26.9896-0.8757,40.4186c-0.3831,13.7281-0.2106,27.4717,0.5164,41.186
		c0.7427,14.0112,1.5945,27.9012,6.282,41.2426c2.8868,8.3098,4.9771,16.7317,8.9672,24.712
		c6.2477,13.3345,16.3441,24.2773,21.2125,38.1449c4.528,12.8978,7.1683,26.3561,9.7829,39.7426
		c6.1503,24.6012,9.7918,50.1333,14.6537,75.0264c4.9628,25.4087,9.6357,50.8747,14.8466,76.2347
		c2.6059,12.6822,5.3447,25.338,8.3209,37.9388c1.4869,6.2951,3.0322,12.5765,4.6497,18.8394
		c1.4132,5.472,4.0425,11.4419,4.7338,16.9644c0.85,6.76,3.63,13.06,5.39,19.61c3.94,14.58,10.03,28.41,15.66,42.38
		c2.4,5.17,5.58,9.95,7.84,15.17c4.09,7.42,8.66,14.56,13.26,21.6899c3.12,6.11,8.17,10.8701,12.09,16.45
		c0.64,0.03,1.93,0.1,2.58,0.13c2.06-1.68,4.35-3.05,6.71-4.28c4.88-2.18,9.52-4.9,13.52-8.46c3.09-2.8,7.44-3.12,11-5.07
		c9.29-5.39,18.32-11.23,27.5-16.8c3.04-1.57,6.65-1.94,9.31-4.26c3.08-2.54,6.6801-4.31,10.5-5.43c0.7999-0.79,1.58-1.6,2.35-2.41
		C254.76,539.78,251.88,532.66,249.76,525.34z M26.93,46.96c-0.175-2.1724-0.2681-4.3562-0.2751-6.5417
		C26.6619,42.6038,26.755,44.7875,26.93,46.96c0.1025,1.255,0.1577,2.5085,0.1767,3.7612
		C27.0876,49.4685,27.0325,48.2151,26.93,46.96z M35.4905,17.0681c1.1172-0.3956,2.2308-0.78,3.2495-1.2581
		C37.7213,16.2882,36.6077,16.6726,35.4905,17.0681z M95.1019,94.6635c0.5419,1.5691,1.1307,3.1215,1.7982,4.6466
		C96.2325,97.785,95.6437,96.2325,95.1019,94.6635z"/>
	<path fill="#404933" stroke="#404933" stroke-width="0.0938" d="M577.46,410.55c-11.97-8.39-24.6399-15.81-37.8099-22.15
		c-9.12-3.68-18.61-6.31-28.01-9.15c-19.42-6.26-39.7101-8.99-59.7999-12.16c-9.2001-1.63-18.5801-1.1801-27.8701-1.14
		c-6.3367,0.018-12.4382,1.9724-18.7412,2.2878c-5.8528,0.2929-11.6822,1.0359-17.424,2.206
		c-11.486,2.3407-22.6227,6.3897-32.931,11.9704c-6.1258,3.3164-11.491,7.4311-17.1888,11.3719
		c-5.124,3.5439-9.452,8.1152-12.1549,13.834c-7.5601,13.4-9.95,30.02-4.8501,44.69c2.8401,7.81,7.8901,14.53,13.04,20.95
		c8.6201,8.67,19.92,14.31,31.66,17.43c3.9,0.84,7.63,2.94,11.7201,2.45l0.0798-1.03c1.28-5.37,3.1301-10.6,5.2201-15.71
		c3.5399-8.74,10.33-15.55,16.7999-22.19c6.6301-7.02,15.0901-11.92,23.55-16.38c6.89-3.18,13.6001-6.86,20.88-9.12
		c11.77-3.86,23.86-6.69,36.0499-8.92c25.5274-4.6699,51.6234-5.4678,77.3478-1.6465c5.9759,0.8876,11.9166,2.0123,17.8029,3.3726
		c3.0086,0.6953,6.0029,1.452,8.9804,2.2701c2.6063,0.7162,5.5234,2.2025,8.249,1.2738C588.05,419.46,582.64,415.01,577.46,410.55z"
		/>
	<path fill="#0F0700" stroke="#0F0700" stroke-width="0.0938" d="M596.8837,430.4504c-0.0066-0.0722-0.0131-0.1475-0.0193-0.226
		c-0.1099-1.3779-0.2523-2.754-0.3784-4.1306c-0.265-2.8914-0.5298-5.7828-0.7947-8.6742
		c-0.7568-8.2606-1.5136-16.5213-2.2704-24.7819c-0.7281-7.9478-2.4176-15.4728-3.8807-23.3078
		c-0.5724-3.0655-3.1331-7.3126-5.2653-9.562c-2.8513-3.0082-5.9423-5.7879-9.2324-8.3085
		c-19.053-14.597-44.0784-22.1455-67.7164-24.4778c-12.1753-1.2013-24.9748-1.612-37.1659-0.3416
		c-9.02,0.9399-17.9401,2.5499-26.77,4.6c-12.5599,1.8-25.9401,6.76-33.3401,17.6001c-5.2135,5.1638-6.8561,12.6816-8.3545,19.6046
		l1.4865,0.3716c0.0073-0.0604,0.0186-0.1195,0.0262-0.1798c-0.0082,0.0649-0.0204,0.1285-0.0282,0.1935
		c6.9901-0.5299,13.7401-2.86,20.79-2.88c9.29-0.04,18.67-0.49,27.8701,1.14c20.0898,3.17,40.3799,5.9,59.7999,12.16
		c9.4,2.84,18.89,5.47,28.01,9.15c13.17,6.34,25.84,13.76,37.8099,22.15c5.1801,4.46,10.5901,8.91,14.6001,14.51
		c-2.7001,0.92-5.3801-0.46-7.9401-1.18c-2.9601-1.05-6.0399-1.63-9.13-2.05c-8.75-2.73-17.79-4.31-26.9399-4.71
		c-12.97-1.55-26.05-1.72-39.0701-1.11c-9.76,1.38-19.6799,1.49-29.3,3.78c-12.1899,2.23-24.2799,5.06-36.0499,8.92
		c-7.2799,2.26-13.99,5.94-20.88,9.12c-8.46,4.46-16.9199,9.36-23.55,16.38c-6.47,6.64-13.26,13.45-16.7999,22.19
		c-2.09,5.11-3.9401,10.34-5.2201,15.71l-0.0798,1.03l-0.0801,1.14l1.1,0.01c4.02-0.6,4.8-4.9,6.13-8.02
		c2.89-7.29,6.2-14.65,11.45-20.5699c7.51-7.54,15.1101-15.33,24.66-20.3c10.04-4.94,20.0601-10.15,30.92-13.09
		c9.72-3.07,19.6599-5.28,29.6-7.5c5.2999-1.11,10.76-0.99,16.0699-2.03c8.5701-1.81,17.3601-0.97,26.05-1.18
		c19.6799-0.53,39.02,3.68,58.2199,7.4c4.5679,0.885,9.5459,3.7445,14.2941,3.2991
		C597.2067,432.1403,597.0293,432.0507,596.8837,430.4504z M493.02,326.53c1.845,0.0243,3.6791,0.1377,5.5054,0.3141
		C496.6991,326.6677,494.865,326.5544,493.02,326.53z"/>
	<path fill="#341705" stroke="#341705" stroke-width="0.0938" d="M563.81,555.56c5.66-0.89,11.27-2.39,17.02-2.44
		c2.38,0.2,3.93,2.36,3.98,4.63c-8.88,5.71-20.36,1.39-29.82,5.51c-17.5,3.44-35.23,5.54-52.79,8.65
		c-18.49,2.48-36.86,5.78-55.39,7.9901c-3.89,0.5099-7.79,1.4-11.72,0.94c-0.47-2.04-0.47-4.9901,1.88-5.84
		c4.07-1.3,8.4-1.56,12.59-2.35c19.88-2.38,39.66-5.58,59.43-8.69C527.29,561.36,545.39,557.24,563.81,555.56z"/>
	<path fill="#D9C5A3" stroke="#D9C5A3" stroke-width="0.0938" d="M554.99,563.26c4.59-0.32,9.16-0.99,13.77-1.09
		c-0.15,5.86-0.36,12.95-5.06,17.13c-8.25,0.11-16.24,2.45-24.41,3.34c-10.74,1.25-21.24,4.05-32.01,5.1
		c-14.42,2.36-28.87,4.62-43.38,6.32c-2.94,0.34-5.91,0.45-8.86,0.22c-3.02-4.59-7.18-8.8101-8.23-14.38
		c18.53-2.21,36.9-5.51,55.39-7.9901C519.76,568.8,537.49,566.7,554.99,563.26z"/>
	<path fill="#1C0C01" stroke="#1C0C01" stroke-width="0.0938" d="M539.29,582.64c8.17-0.89,16.16-3.23,24.41-3.34
		c1.36,0.9,1.84,2.15,1.44,3.75c-0.86,7.12-6.07,12.52-9.83,18.29c-5.82,6.64-12.91,12.7-21.47,15.3799
		c-5.77,1.76-11.3801,3.1049-17.34,3.0948c-1.19-0.07-2.35-0.1248-3.53-0.1648c-12.05-0.03-24.71,1.4-36.05-3.65
		c-4.77-2.67-8.9617-4.5416-13.24-9.69c-4.12-4.12-7.17-8.04-8.64-12.03c2.66-0.46,6.45,1.06,8.86-0.22
		c14.51-1.7,28.96-3.96,43.38-6.32C518.05,586.69,528.55,583.89,539.29,582.64z"/>
	<path fill="#161205" stroke="#161205" stroke-width="0.0938" d="M276.14,621.11c5.62-2.96,10.66-7.11,16.81-8.99
		c1.57,2.05,2.77,4.36,3.44,6.86c-3.1,4.44-7.98,7.08-12.47,9.88c-23.63,14.12-47.32,28.13-71.15,41.91
		c-3.48,1.72-6.81,3.97-10.62,4.9c-2.72-0.36-3.94-3.33-4.58-5.66c1.58-2.25,3.78-3.93,6.12-5.32c8.13-4.84,16.15-9.86,24.3-14.69
		c7.27-3.92,13.94-8.86,21.21-12.78C258.13,631.78,266.88,626.01,276.14,621.11z"/>
	<path fill="#933213" stroke="#933213" stroke-width="0.0938" d="M660.2099,502.928c-1.3462-3.7027-3.1929-7.1982-5.5934-10.1628
		c-3.5411-4.3733-8.9835-7.566-14.589-7.0726c-3.6035,0.3171-7.1938,2.0991-10.6934,1.183
		c-1.584-5.2229-3.8472-10.045-6.3241-14.8956c-5.66-11.02-10.41-22.87-19.0901-31.93c-2.21-2.47-3.51-5.69-6.1699-7.76h-0.6799
		c-5.5,0.27-10.5901-2.09-15.8501-3.29c-19.2-3.72-38.54-7.93-58.22-7.4c-8.6899,0.21-17.48-0.63-26.05,1.18
		c-5.3099,1.04-10.77,0.92-16.0699,2.03c-9.9401,2.22-19.88,4.43-29.6,7.5c-10.86,2.94-20.88,8.15-30.92,13.09
		c-9.5499,4.97-17.15,12.76-24.66,20.3c-5.25,5.92-8.5599,13.28-11.45,20.5699c-1.33,3.1201-2.11,7.42-6.13,8.02
		c-0.5699,7.53-1.5,15.01-1.2799,22.59c-5.3201,0.35-11.52-0.94-15.9102,2.84c-2.3201,0.84-4.3499,2.42-5.96,4.2599
		c-3.8999,7.22-5.6799,15.48-5.6299,23.64c0.0257,4.1866,1.2322,8.9508,2.1671,13.0232c0.9481,4.1296,2.2531,8.4259,4.9022,11.7514
		c5.394,6.7712,12.1415,12.2228,20.136,15.6367c2.9544,1.2616,6.1845,2.3477,8.2105,4.8407
		c1.959,2.4105,2.3543,5.5768,2.9527,8.5186c0.6363,3.1285,2.251,5.764,2.9315,8.8295c0.67,3.55,3.15,6.32,4.34,9.67
		c3.5637,9.4894,12.3299,18.0179,19.9685,24.4474c8.1835,6.8881,17.528,12.4033,27.5342,16.1893
		c7.5164,2.8439,15.6229,5.0483,23.4373,6.8933c0.5099,6.4-4.3199,11.65-4.52,18.04c-0.35-0.15-1.04-0.46-1.38-0.61
		c4.51,6.2401,6.71,13.69,9.15,20.9c3.09,9.57,6.45,19.05,9.49,28.64c5.86,19.62,11.49,39.31,18.36,58.6
		c1.8101,4.9,2.9,10.09,5.4,14.72c0.61,0.08,1.8099,0.23,2.41,0.31c2.4199-2.14,3.8599-5.07,5.26-7.92
		c10.2999-21.02,21.7-41.49,32.6599-62.17c3.0701-8.81,8.39-16.51,12.36-24.9c4.42-7.3701,8.64-14.85,12.2001-22.6801
		c-0.4401-0.27-1.3401-0.8-1.78-1.0699c-2.65-4.77-3.64-10.1801-5.7-15.16c-1.7001-2.38,0.49-5.47,2.8298-6.42
		c7.52-3.65,14.9801-7.51,21.9601-12.12c2.98-2.72,6.23-5.11,9.5499-7.4c17.6935-16.1376,32.3892-35.8536,37.3875-59.6704
		c0.6959-3.316,1.4101-6.7961,1.5-10.1896c0.0823-3.1053-0.3145-5.9429,1.864-8.502c1.6423-1.9293,3.8337-3.29,5.8897-4.7706
		c17.3924-12.5247,25.7564-35.7969,21.0146-56.604C661.3998,506.5745,660.8649,504.7298,660.2099,502.928z M353.2773,533.3907
		c0.2969-1.3755,0.6501-2.7432,1.0627-4.1007C353.9276,530.6475,353.5742,532.0152,353.2773,533.3907z M547.6599,496.98
		c0.5801-5.89,5.1001-10.97,10.6501-12.79c7.1599-1.33,16.5399,3.83,16.49,11.88c0.1,3.47,0.26,7.62-2.47,10.22
		c-1.8501,1.8-3.79,3.57-6.05,4.83c-4.8401,1.41-10.6801,0.67-14.3201-3.06C549.35,505.01,547.23,501.12,547.6599,496.98z
		 M422.8201,516.26c-0.8701-3.95-1.67-8.81,1.3199-12.09c1.73-2.04,3.61-4.02,5.83-5.53c3.3801-0.85,7.1101-0.55,10.55-0.01
		c3.9,2.32,7.5,5.93,8.29,10.57c0.73,4.81-1.1201,9.7-4.52,13.12c-2.3601,3.18-6.8201,2.89-10.3501,2.88
		C428.67,525.4,424.3401,520.98,422.8201,516.26z M554.99,563.26c4.5901-0.32,9.16-0.99,13.77-1.09
		c-0.15,5.86-0.36,12.95-5.0601,17.13c1.3601,0.9,1.8401,2.15,1.4401,3.75c-0.86,7.12-6.0699,12.52-9.83,18.29
		c-5.8201,6.64-12.91,12.7-21.47,15.3799c-5.77,1.76-11.0989,3.1049-17.0588,3.0948c-1.1899-0.07-2.6312-0.1248-3.8113-0.1648
		c-12.0499-0.03-24.71,1.4-36.0499-3.65c-4.77-2.67-9.77-5.35-13.2401-9.69c-2.5999-3.23-6.0399-5.93-7.5099-9.92l-1.13-2.11
		c-3.02-4.59-7.1801-8.8101-8.23-14.38c-3.89,0.5099-7.79,1.4-11.72,0.94C434.62,578.8,434.62,575.85,436.97,575
		c4.0701-1.3,8.4-1.56,12.5901-2.35c19.8799-2.38,39.6599-5.58,59.4299-8.69c18.3-2.6,36.4-6.72,54.8201-8.4
		c5.6599-0.89,11.27-2.39,17.02-2.44c2.3799,0.2,3.9299,2.36,3.98,4.63C575.9299,563.46,564.45,559.14,554.99,563.26z"/>
	<path fill="#3E4830" stroke="#3E4830" stroke-width="0.0938" d="M696.36,684.33c9.3-3.05,18.41-6.6,27.85-9.21
		c1.45-0.22,3.04-0.41,4.45,0.17c6.41,3.02,12.66,6.42,18.39,10.61c7.44,3.77,13.99,9.04,21.63,12.43
		c5.25,3.05,10.42,6.24,15.68,9.29c3.53,3.61,8.31,5.58,11.97,9.05c5.84,4.46,11.7,8.92,17.21,13.79
		c6.73,4.94,13.45,9.9,19.96,15.14c2.9,1.28,5.01-1.46,6.73-3.36c2.38-2.97,4.52-6.24,7.73-8.41c6.29,3.17,11.31,8.13,16.89,12.31
		c6.21,4,11.58,9.12,17.58,13.44c7.74,5.5,15.3,11.28,22.56,17.4c2.81,2.23,6.79,3.41,8.18,7.02c-3.56,4.47-7.46,8.67-10.9,13.23
		c-1.1,1.3-1.3,3.04-1.84,4.61c-4.97,2.43-7.66,7.44-11,11.58c-13.96,17.68-28.25,35.08-42.32,52.67
		c-4.86,5.53-9.39,11.35-13.8,17.25c-1.36,1.65-1.91,3.75-1.91,5.86l0.02,0.68c-3.63,0.15-5.17,3.84-7.37,6.15
		c-3.44,3.79-6.2,8.1899-10.08,11.5699c-2.28-0.7-4.11-2.2599-5.96-3.66c-15.23-11.94-31.22-22.88-46.37-34.9
		c0.09-0.72,0.27-2.15,0.36-2.86c1.07-2.68,4.63-6.27,1.75-8.89c-6.87-5.5-13.83-10.89-20.8-16.2599
		c-2.49-1.88-4.98-3.82-7.87-5.0601c-3.28,5.1201-4.99,11.02-7.62,16.47c-9.54,20.92-18.25,42.2-27.82,63.11
		c-6.98,15.46-13.13,31.3-20.44,46.61c-1.48,3.4-3.18,6.96-2.66,10.78c0.7,6.26,1.46,12.51,1.68,18.82
		c-0.17,2.81-0.47,5.62-0.56,8.45c-0.77-7.03-1.42-14.06-1.97-21.1c-0.93-7.78-0.11-15.65-1.37-23.39
		c-1.59-10.05-2.24-20.22-4.18-30.21c-1.03-11.84-2.77-23.63-3.32-35.52c-0.3-12.01-1.56-23.98-1.91-35.99
		c-0.37-9.67-0.67-19.34-1.06-29.01c-0.22-5.36,0.47-10.71,0.14-16.06c-0.67-9.23,0.16-18.52-1.27-27.69
		c-0.97-15.4,0.16-30.87-0.52-46.28c-0.34-4.55-0.34-9.12-0.43-13.68c0.52-8.7-0.14-17.42,0.17-26.13c3.33-0.2,6.47-1.31,9.44-2.77
		C679.74,689.8,687.93,686.71,696.36,684.33z"/>
	<path fill="#404932" stroke="#404932" stroke-width="0.0938" d="M341.66,717.97c0.2999-6.28,0.88-12.5699,0.59-18.86
		c-1.0601-3.43-1.2-7.03-0.64-10.55l0.1-0.91c-1.2899-1.15-2.7999-2.12-3.6-3.7c-4.92-8.6-11.2699-16.27-16.0699-24.94
		c-6.8501-12.02-15.26-23.1-21.7-35.35c-1-1.84-0.8-4.2498-2.26-5.7899V617.87c-0.55-2.85-2.4701-5.21-3.6001-7.84
		c4.3701-4.51,10.49-6.57,15.46-10.26c0.2101-1.73-1.6199-2.96-2.2899-4.45c-9.17-15.56-17.59-31.55-26.92-47.02
		c-1.9399-3.08-2.9299-7.23-5.8799-9.38c-7.05,0.95-11.75,7.64-18.8501,8.42c-0.77,0.81-1.55,1.62-2.35,2.41
		c-3.8199,1.12-7.42,2.89-10.5,5.43c-2.66,2.32-6.27,2.69-9.31,4.26c-9.18,5.57-18.21,11.41-27.5,16.8c-3.56,1.95-7.91,2.27-11,5.07
		c-4,3.56-8.64,6.28-13.52,8.46c-2.36,1.23-4.65,2.6-6.71,4.28c-0.65-0.03-1.94-0.1-2.58-0.13c-0.25,0.67-0.7401,2.01-0.9901,2.68
		c-9.6,4.85-18.54,10.89-28.14,15.75c-1.44,1-4.55,1.98-3.14,4.27c4.26,7.22,8.45,14.49,12.06,22.07
		c4.2,7.15,8.48,14.26,12.43,21.55c4.49,6.15,7.4,13.45,12.25,19.26c6.03-3.05,11.35-7.87,18.24-8.9c2.34,2.64,3.43,6.54,6.66,8.29
		c0.14,2.65,2.17,4.58,3.38,6.81c4.2,6.59,7.71,13.58,11.65,20.33c3.81,6.33,6.3,13.36,10.55,19.46c4.1,8.04,9.47,15.35,13.7,23.32
		c8.28,13.12,14.4201,27.41,22.04,40.9c3.9,8.29,8.8201,16.05,12.7001,24.35c3.59,7.59,8.09,14.7,11.71,22.28
		c5.0699,10.54,11.0599,20.61,15.65,31.3799c5.04,11.92,10.21,23.77,15.33,35.65c4.65,8.84,7.79,18.41,12.9801,26.97
		c1.8199,2.91,2.96,6.25,5.2899,8.8199c0.24,0.5,0.7101,1.4901,0.9401,1.9901c-0.5801-14.54,1.35-28.98,2.34-43.45
		c-0.62-17.57-0.12-35.14,0.49-52.7c-0.13-30.68,0.2999-61.36,0.62-92.03C342.01,741.31,341.48,729.64,341.66,717.97z M281.97,557
		c-0.88-1.345-1.6074-2.7775-2.3386-4.2075C280.3625,554.2225,281.0901,555.655,281.97,557z M283.92,628.86
		c-23.63,14.12-47.32,28.13-71.15,41.91c-3.48,1.72-6.81,3.97-10.62,4.9c-2.72-0.36-3.94-3.33-4.58-5.66
		c1.58-2.25,3.78-3.93,6.12-5.32c8.13-4.84,16.15-9.86,24.3-14.69c7.27-3.92,13.94-8.86,21.21-12.78
		c8.9301-5.4399,17.6801-11.21,26.9401-16.11c5.62-2.96,10.66-7.11,16.8099-8.99c1.5701,2.05,2.77,4.36,3.4401,6.86
		C293.29,623.42,288.41,626.06,283.92,628.86z M337.4478,686.2933c0.2715,0.4249,0.6393,0.7397,1.0596,0.992
		C338.0869,687.033,337.7192,686.7182,337.4478,686.2933z"/>
	<path fill="#3C452F" stroke="#3C452F" stroke-width="0.0938" d="M341.71,687.65c1.98-2.03,5.15-2.9901,7.93-2.36
		c14.71,2,29.48,3.79,43.99,7c5.72,0.81,11.46,2.01,17.27,1.54c1.31-0.07,2.17-1.25,3.31-1.75c3.77-1.67,8.01-1.02,11.94-2
		c5.25-1.25,10.46-2.9,15.88-3.28c6.07-0.12,11.87-2.47,17.99-1.95c4.51,6.2401,6.71,13.69,9.15,20.9
		c3.09,9.57,6.45,19.05,9.49,28.64c5.86,19.62,11.49,39.31,18.36,58.6c1.81,4.9,2.9,10.09,5.4,14.72c0.61,0.08,1.81,0.23,2.41,0.31
		c2.42-2.14,3.86-5.07,5.26-7.92c10.3-21.02,21.7-41.49,32.66-62.17c3.07-8.81,8.39-16.51,12.36-24.9
		c4.4199-7.3698,8.6397-14.8494,12.1996-22.6791c0.8793-1.934,4.2043-2.3533,5.9125-2.15c3.1445,0.3742,6.2848,0.7874,9.4268,1.182
		c6.2924,0.7902,12.5847,1.5803,18.8771,2.3705c1.5902,0.1997,3.2352,0.418,4.6008,1.2571c2.931,1.8009,1.6606,5.1259,2.5333,7.8896
		c-2.94,1.2-3.99,4.24-4.81,7.04c-5.12,12.98-8.06,26.66-11.78,40.07c-3.33,12.45-6.06,25.11-6.99,37.99
		c-1.24,7.75-2.14,15.61-4.15,23.2c-1.18-1.21-2.33-2.46-3.28-3.85c-5.2401-7.93-12.01-14.68-17.88-22.12
		c-4.68-5.96-9.59-11.75-14.42-17.58c-2.45-2.84-4.48-6.51-8.31-7.63c-0.04,4.77,3.35,8.39,5.81,12.14
		c5.29,8.08,10.8,16.01,15.79,24.28c8.24,11.56,15.05,24.08,23.4,35.58c0.62,0.96,1.66,1.47,2.68,1.96
		c1.54-6.56,2.52-13.24,3.46-19.9c1.07-10.74,3.3-21.33,3.9-32.11c0.63-9.23,3.11-18.17,4.59-27.27
		c2.15-12.64,5.23-25.09,8.31-37.52c1.39-3.43,2.86-6.83,4.65-10.07c0.44,1.34,0.88,2.68,1.26,4.05c0.53,3.91,0.8,7.86,0.76,11.81
		c-0.17,14.7,0.78,29.38,0.52,44.07c1.1,20.31,0.51,40.64,0.73,60.96c0.08,6.94,1.05,13.93-0.08,20.83
		c-15.24,0.94-30.55,0.06-45.82,0.3c-13.66,0.37-27.33-0.48-40.98,0.42c-25.68,0.19-51.35,0.05-77.03,0.06
		c-18.84-0.24-37.74,0.75-56.52-1.04c-1.84-10.75-0.74-21.72-1.31-32.57c0.09-24.64-0.65-49.28-0.57-73.92
		c-0.35-8.35-0.66-16.7-1.25-25.04c-0.26-5.96,0.3-11.96-0.54-17.88c-0.21-1.73-0.97-3.61-2.7-4.29c-3.22-1.36-6.77-1.49-10.19-1.92
		c-9.94-0.85-19.72-4.48-29.77-3.08c-4.6,1.54-3.32,7.45-3.89,11.24c-1.06-3.43-1.2-7.03-0.64-10.55L341.71,687.65 M413.5,695.14
		c0.35,8.03,3.53,15.56,4.93,23.42c2.63,14.16,4.9,28.38,7.51,42.54c0.9,4.47,0.64,9.14,2.09,13.51
		c1.59,11.54,2.78,23.15,3.62,34.78c1.01,4.44,0.59,9.34,2.61,13.49c2.89-0.56,3.84-3.97,5.76-5.87
		c12.97-14.72,25.74-29.62,38.26-44.73c2.41-3.21,6.24-5.8701,6.64-10.15c-2.72,0.39-4.64,2.45-6.57,4.22
		c-3.41,3.26-7.27,6.04-10.6,9.4c-7.09,6.93-15.12,12.84-21.99,20.01c-1.65,1.61-3.38,3.28-5.61,4.05c-2.46-2.2-2.32-5.84-3.18-8.79
		c-2.06-8.8-3.12-17.79-5.16-26.57c0.26-3.12-0.61-6.18-1.13-9.22c-2.62-12.56-4.46-25.33-8.38-37.58c-2.7-7.8-3.84-16.12-7.5-23.59
		C414.48,694.33,413.83,694.87,413.5,695.14z"/>
	<path fill="#2A260E" stroke="#2A260E" stroke-width="0.0938" d="M646.6,696.59c5.05-1.17,10.13-2.67,15.36-2.57l-0.02,1.13
		c-0.31,8.71,0.35,17.43-0.17,26.13c-1.98-7.03-0.02-14.44-1.66-21.48c-1.33-4.04-6.27-2.21-9.35-1.87
		c-11.67,2.89-23.77,2.82-35.63,4.34c-3.7-0.15-3.7,4.26-4.24,6.89c-0.38-1.37-0.82-2.71-1.26-4.05c-1.79,3.24-3.26,6.64-4.65,10.07
		c0.48-3.34,1.12-6.65,2.02-9.89c-1.06,0.87-2.13,1.73-3.15,2.65c0.82-2.8,1.87-5.84,4.81-7.04c3.34-0.2,6.64-0.75,9.92-1.39
		c4.49-1.08,9.2,0.09,13.65-1.26C637.06,698.01,641.82,697.24,646.6,696.59z"/>
	<path fill="#100E02" stroke="#100E02" stroke-width="0.0938" d="M603.85,707.94c1.02-0.92,2.09-1.78,3.15-2.65
		c-0.9,3.2401-1.54,6.55-2.02,9.89c-3.08,12.43-6.16,24.88-8.31,37.52c-1.48,9.1-3.96,18.04-4.59,27.27
		c-0.6,10.78-2.83,21.3701-3.9,32.11c-0.94,6.66-1.92,13.34-3.46,19.9c-1.02-0.49-2.06-1-2.68-1.96
		c-8.35-11.5-15.16-24.02-23.4-35.58c-4.99-8.27-10.5-16.2-15.79-24.28c-2.46-3.75-5.85-7.37-5.81-12.14
		c3.83,1.12,5.86,4.79,8.31,7.63c4.83,5.83,9.7401,11.62,14.42,17.58c5.87,7.44,12.64,14.19,17.88,22.12
		c0.95,1.39,2.1,2.64,3.28,3.85c2.01-7.59,2.91-15.45,4.15-23.2c0.93-12.88,3.66-25.54,6.99-37.99
		C595.79,734.6,598.73,720.92,603.85,707.94z"/>
	<path fill="#110E02" stroke="#110E02" stroke-width="0.0938" d="M478.3501,766.35c-3.4102,3.26-7.27,6.04-10.6001,9.4
		c-7.09,6.93-15.12,12.84-21.99,20.01c-1.65,1.61-3.38,3.28-5.61,4.05c-2.4601-2.2-2.3199-5.84-3.1801-8.79
		c-2.0599-8.8-3.1199-17.79-5.1599-26.57c0.26-3.12-0.6101-6.18-1.1301-9.22c-2.6199-12.56-4.46-25.33-8.3799-37.58
		c-2.7-7.8-3.8401-16.12-7.5-23.59c-0.3201,0.27-0.97,0.81-1.3,1.08c0.3501,8.03,3.53,15.56,4.9299,23.42
		c2.6301,14.16,4.9001,28.38,7.51,42.54c0.9001,4.47,0.6401,9.14,2.0901,13.51c1.59,11.54,2.78,23.15,3.62,34.78
		c1.01,4.44,0.59,9.34,2.61,13.49c2.89-0.56,3.8401-3.97,5.76-5.87c12.97-14.72,25.74-29.62,38.26-44.73
		c2.4099-3.21,6.24-5.8701,6.64-10.15C482.2,762.52,480.28,764.58,478.3501,766.35z"/>
	<path fill="#1B0D01" stroke="#1B0D01" stroke-width="0.0938" d="M889.43,813.42c3.34-4.14,6.03-9.15,11-11.58
		c2.04,1.65,4.28,3.11,5.93,5.21c-2.69,5.18-6.8,9.33-10.81,13.47c-5.55,6.51-10.8,13.28-15.92,20.13
		c-10.64,12.99-21.4,25.89-32.04,38.89c-3.46,3.98-6.11,8.9-10.66,11.78c-2.02-0.11-3.74-1.34-5.53-2.12c0-2.11,0.55-4.21,1.91-5.86
		c4.41-5.9,8.94-11.72,13.8-17.25C861.18,848.5,875.47,831.1,889.43,813.42z"/>
	<path opacity="0.48" fill="#3E3822" stroke="#3E3822" stroke-width="0.0938" enable-background="new    " d="M761.64,869.04
		c-1.54-0.57-1.25-2.7,0.36-2.86C761.91,866.89,761.73,868.32,761.64,869.04z"/>
	<path fill="#8A2B0B" stroke="#8A2B0B" stroke-width="0.0938" d="M996.6613,905.2142c-1.6169-4.5257-4.483-8.4815-7.3474-12.3405
		c-4.6224-6.2275-9.3423-12.3843-14.233-18.4041c-7.7494-9.5384-15.9333-18.7429-24.7988-27.2619
		c-8.7949-8.4512-18.7107-15.557-27.012-24.5078c-5.24-5.65-11.38-10.32-16.91-15.65c-2.6901,5.18-6.7999,9.33-10.8099,13.47
		c-5.55,6.51-10.8,13.28-15.92,20.13c-10.64,12.99-21.4,25.89-32.0399,38.89c-3.4601,3.98-6.1101,8.9-10.6602,11.78
		c-2.02-0.11-3.74-1.34-5.5299-2.12l0.0199,0.68c0.8601,1.04,1.79,2.05,2.78,3c7.1201,6.14,13.5601,13.01,20.1401,19.71
		c1.5898,1.92,3.97,3.49,4.4299,6.11c-17.25,12.27-32.42,27.27-50.13,38.95c-10.1901,6.99-19.77,14.83-29.27,22.73
		c-7.5699,6.53-15.92,12.07-23.8099,18.21c-6.3101,5.44-13.29,10.04-19.97,14.98c-14.4701,11.98-29.53,23.17-44.4202,34.6
		c-3.7799,2.74-6.2,6.7999-9.5499,9.97c-0.36,0.33-1.08,0.98-1.4401,1.3099c0.0901,1.4301,0.1602,2.87,0.23,4.3401
		c1.8601,12.64,2.01,25.45,1.76,38.2c0.1401,25.9401,0.29,51.88,0.01,77.8101L683,1180.08c0-12.4399,0.23-24.88-0.1599-37.3099
		c0.6799,0.1699,2.0599,0.5,2.75,0.66c1.5898,2.6399,2.1499,6.71,5.7899,7.2699c3.83,0.76,7.48,2.26,11.38,2.78
		c7.6499,2.3101,15.76,1.84,23.61,3.1901c4.9401,0.86,10.01,0.09,14.9701,0.98c4.5599,0.48,9.0499,1.62,13.6799,1.47
		c5.71,0.29,11.48-0.3099,17.1399,0.7c5.9202,0.5901,11.8901,0.1901,17.8301,0.29c3.3101-0.1,6.89,0.49,9.9-1.27
		c0.75-5.1699,1.39-10.35,1.5699-15.5699c0.15-3.14,2.29-7.61-1.1499-9.61c-16.1101-5.6-33.04-9.5701-48.01-17.99
		c-7.3401-11.2001-10.17-24.51-14.6101-36.9501c1.54-2.15,4.49-2.86,6.7101-4.24c10.86-4.49,21.2799-9.9299,31.73-15.28
		c15.87-7.5499,31.1-16.3999,46.92-24.0699c8.48-4.54,16.7999-9.38,25.4399-13.59c18.54-9.93,36.39-21.09,54.87-31.1
		c10.09-5.34,18.7301-12.95,28.78-18.36c7.2899-5.51,15.3099-9.94,22.87-15.07c7.1-4.83,14.62-9.15,20.84-15.15
		c5.8199-3.71,10.61-8.7,15.4-13.61C996.7938,922.3065,999.4253,912.9505,996.6613,905.2142z"/>
	<path fill="#060300" stroke="#060300" stroke-width="0.0938" d="M682.1699,1101.99c0.25-12.7499,0.1001-25.5597-1.76-38.1997
		c0,0,0-0.0001,0-0.0002c-0.0698-1.4701-0.1399-2.91-0.23-4.3401c-0.8799-7.4199-0.27-14.8899-0.6199-22.3199
		c-0.7001-12.3101-0.73-24.65-1.9001-36.92c-0.7699-7.03-1.4199-14.06-1.97-21.1c-0.9299-7.78-0.1099-15.65-1.3699-23.39
		c-1.5901-10.05-2.24-20.22-4.1801-30.21c-1.03-11.84-2.77-23.63-3.3199-35.52c-0.3-12.01-1.5601-23.98-1.9102-35.99
		c-0.3699-9.67-0.6699-19.34-1.0599-29.01c-0.22-5.36,0.4701-10.71,0.14-16.06c-0.6699-9.23,0.16-18.52-1.27-27.69
		c-0.97-15.4,0.16-30.87-0.52-46.28c-0.34-4.55-0.34-9.12-0.4299-13.68c-1.98-7.03-0.02-14.44-1.66-21.48
		c-1.33-4.04-6.2699-2.21-9.35-1.87c-11.6699,2.89-23.77,2.82-35.63,4.34c-3.7001-0.15-3.7001,4.26-4.24,6.89
		c0.5299,3.91,0.7999,7.86,0.76,11.81c-0.17,14.7,0.7799,29.38,0.5199,44.07c1.1001,20.31,0.51,40.64,0.7301,60.96
		c0.08,6.94,1.0499,13.93-0.08,20.83c-15.24,0.94-30.55,0.06-45.8201,0.3c-13.6599,0.37-27.3301-0.48-40.98,0.42
		c-25.6799,0.19-51.35,0.05-77.03,0.06c-18.84-0.24-37.74,0.75-56.52-1.04c-1.84-10.75-0.74-21.72-1.3099-32.57
		c0.09-24.64-0.65-49.28-0.5699-73.92c-0.3501-8.35-0.6602-16.7-1.25-25.04c-0.26-5.96,0.2999-11.96-0.54-17.88
		c-0.21-1.73-0.97-3.61-2.7-4.29c-3.2201-1.36-6.77-1.49-10.1901-1.92c-9.9401-0.85-19.7201-4.48-29.77-3.08
		c-4.6,1.54-3.3199,7.45-3.89,11.24c0.29,6.29-0.29,12.58-0.59,18.86c-0.1801,11.67,0.35,23.34-0.39,35
		c-0.3201,30.67-0.75,61.35-0.62,92.03c-0.61,17.56-1.11,35.13-0.49,52.7c-0.99,14.47-2.92,28.91-2.34,43.45
		c0.49,7.92-0.4301,15.86,0.1799,23.78c-0.97,7.62,0.36,15.41-0.88,23.04c-0.24,16.05-0.1901,32.1201-0.13,48.1801
		c-0.97,2.24-0.58,4.58-0.0699,6.9l-0.89-0.27c0.02,18.1799-0.23,36.37,0.14,54.5399c-0.63,3.7301-0.61,7.5701,0.0299,11.3101
		c0,0.0001,0,0.0002,0,0.0002c-0.3899,4.77-0.1699,9.5798-0.2,14.3698c0.05,4.74-0.36,9.55,0.63,14.23
		c0.8199,6.9301,0.11,13.9401,0.4,20.9l1.04-0.01c0.01,0.64,0.0499,1.9401,0.0599,2.59c-0.3199,6.4701-0.5499,12.9701-0.25,19.4501
		c3.02,0.2799,6.0599,0.02,9.09-0.11c5-0.2301,10,0.49,15,0.0699c3.74-0.33,7.3801,0.86,11.1101,0.9l0.1199-1.09
		c0.6602,0.0199,1.98,0.0399,2.6401,0.0599v0.99c44.4099,0.0701,88.8199-0.04,133.22,0.15l-0.01,0.86
		c11.3799-0.01,22.78,0.08,34.1599-0.05l-0.1799-1.0199c0.72-0.01,2.1699-0.01,2.8899-0.02c18.3501-0.55,36.7201-0.03,55.0801-0.23
		c14.6599,0.5299,29.3401,0.46,44.01,0.25c12.38-0.14,24.77,0.6699,37.1499-0.0901l0.02-1.0299
		C682.46,1153.87,682.3101,1127.9301,682.1699,1101.99z M337.2927,1061.7489c-0.0251,2.0824-0.0276,4.1636,0.0374,6.2411
		C337.265,1065.9125,337.2676,1063.8313,337.2927,1061.7489z M337.3,1127.03c0.0117,4.0103,0.2729,8.0161,0.5336,12.0215
		C337.573,1135.0461,337.3115,1131.0403,337.3,1127.03z M671.2,942.385c0.2776,3.2,0.4601,6.41,0.66,9.615
		C671.6599,948.795,671.4775,945.585,671.2,942.385z"/>
	<path fill="#594A34" stroke="#594A34" stroke-width="0.0938" d="M545.92,1180.9c18.35-0.55,36.72-0.03,55.08-0.23
		c14.66,0.5299,29.34,0.46,44.01,0.25c12.38-0.14,24.77,0.6699,37.15-0.0901l-0.06,1.0801c-45.4,0.26-90.85,0.0499-136.2599,0.0499
		L545.92,1180.9z"/>
	<circle fill="#1F0A01" cx="561.3906" cy="498.1082" r="15.2863"/>
	<circle fill="#1F0A01" cx="434.8444" cy="511.1667" r="15.2863"/>
</g>
</svg>
